<svg width="1238" height="242" viewBox="0 0 1238 242" fill="none" xmlns="http://www.w3.org/2000/svg">
<path d="M235.298 236.825C235.061 236.825 234.869 236.632 234.869 236.395C234.869 236.257 234.94 236.124 235.052 236.043C252.112 223.797 253.081 218.953 253.081 126.696V86.7382C253.081 65.8211 252.772 44.5948 251.549 13.4071C251.496 12.0557 252.445 10.8656 253.775 10.6239C254.571 10.4793 255.377 10.6855 255.994 11.2079C288.561 38.7462 338.591 85.0694 379.229 123.105C383.16 126.784 389.716 123.817 389.688 118.432C389.67 115.237 389.67 111.916 389.67 108.504C389.67 38.2427 387.732 29.9419 370.01 16.7004C369.9 16.6186 369.832 16.4874 369.832 16.3508C369.832 16.1119 370.026 15.9183 370.265 15.9183H447.771C448.013 15.9183 448.209 16.114 448.209 16.3555C448.209 16.4897 448.144 16.6191 448.038 16.7022C432.916 28.6303 431.948 34.4558 431.948 126.696C431.948 197.42 432.878 221.082 434.435 239.698C434.501 240.483 434.002 241.204 433.244 241.42C432.648 241.59 432.023 241.428 431.6 240.975C403.908 211.276 349.488 158.434 305.169 115.937C301.356 112.282 295.102 114.992 295.18 120.273C295.267 126.085 295.359 132.449 295.359 139.366C295.359 214.479 297.297 223.123 315.016 236.043C315.127 236.124 315.197 236.256 315.197 236.394C315.197 236.632 315.004 236.825 314.766 236.825H235.298Z" fill="#E5D3B3"/>
<path d="M447.782 203.039C447.782 171.728 475.831 149.039 526.229 130.474C528.692 129.567 530.331 127.181 530.156 124.562C528.728 103.296 523.224 98.4333 508.271 98.4333C489.429 98.4333 468.639 103.62 456.276 109.784C456.25 109.797 456.222 109.803 456.193 109.803C456.06 109.803 455.97 109.667 456.022 109.544L473.414 68.508C474.255 66.523 476.098 65.1402 478.24 64.896C493.366 63.1718 506.584 62.0487 518.678 62.0487C552.825 62.0487 575.265 74.0686 575.265 106.555C575.265 111.753 574.94 124.747 574.94 135.143C574.94 195.892 576.241 200.765 583.07 200.765C585.509 200.765 588.804 200.194 591.082 199.588C591.34 199.519 591.612 199.638 591.732 199.877C591.807 200.027 591.81 200.204 591.739 200.357L576.358 233.746C575.478 235.656 573.663 236.976 571.567 237.161C566.734 237.586 561.495 237.799 554.126 237.799C534.288 237.799 528.434 230.002 528.434 211.81C528.434 202.096 529.441 177.554 530.126 159.183C530.265 155.454 526.986 152.494 523.329 153.239C500.898 157.807 492.011 167.583 492.011 183.547C492.011 195.242 497.214 200.765 510.548 200.765C515.875 200.765 521.202 198.955 525.075 196.789C525.311 196.657 525.61 196.746 525.731 196.988C525.795 197.116 525.797 197.267 525.736 197.397L508.55 233.839C507.759 235.517 506.237 236.748 504.412 237.084C496.625 238.516 489.093 238.774 483.88 238.774C461.441 238.774 447.782 222.856 447.782 203.039Z" fill="#E5D3B3"/>
<path d="M599.455 199.141C599.455 185.496 600.106 165.03 600.106 144.889V133.843C600.106 103.306 598.805 93.2355 595.553 87.7128C592.029 82.5929 589.767 81.2554 584.106 78.7326C583.949 78.6627 583.845 78.5059 583.845 78.334C583.845 78.122 583.992 77.9421 584.2 77.9061C597.421 75.6289 619.091 70.2873 637.427 64.3167C641.503 62.9892 645.787 66.0948 645.704 70.3813C645.225 95.1907 644.985 156.403 644.985 182.897C644.985 196.867 649.863 203.364 659.294 203.364C667.134 203.364 673.294 201.895 678.787 200.139C681.161 199.379 682.753 197.172 682.823 194.681C683.166 182.491 683.685 165.507 683.685 144.889C683.685 103.956 682.385 93.5603 678.482 87.7128C675.597 83.2305 673.345 81.2725 667.365 78.729C667.206 78.6612 667.1 78.5041 667.1 78.3311C667.1 78.121 667.228 77.9458 667.435 77.9096C674.511 76.6745 703.025 70.1634 720.53 64.6835C724.833 63.3365 729.451 66.7757 729.227 71.2791C728.151 92.9207 727.914 127.902 727.914 144.239C728.239 211.927 728.886 221.175 743.068 236.038C743.151 236.124 743.199 236.242 743.199 236.361C743.199 236.617 742.992 236.825 742.736 236.825C738.032 236.825 733.613 236.825 728.89 236.825C719.134 236.825 709.702 236.825 700.271 236.825C693.984 236.825 689.342 234.677 686.422 229.909C683.822 225.664 677.619 223.077 673.486 225.852C662.368 233.317 648.121 239.099 635.554 239.099C613.439 239.099 599.455 225.13 599.455 199.141Z" fill="#E5D3B3"/>
<path d="M754.96 207.587C754.96 185.171 755.611 158.533 755.611 145.538C755.611 134.809 755.352 126.926 755.296 111.262C755.284 107.949 752.599 105.255 749.286 105.255H746.352C742.904 105.255 740.165 102.357 740.361 98.9146L741.42 80.2984C741.547 78.0667 742.91 76.0987 744.926 75.1329C766.995 64.5586 784.324 49.8449 801.929 24.3113C802.045 24.1429 802.238 24.0398 802.443 24.0398C802.797 24.0398 803.079 24.3325 803.064 24.6858C802.769 31.4986 802.247 44.2101 801.912 59.5146C801.838 62.8687 804.542 65.6222 807.897 65.6222H828.28C831.962 65.6222 834.776 68.9082 834.208 72.5464L829.9 100.18C829.445 103.101 826.929 105.255 823.972 105.255H807.466C804.152 105.255 801.466 107.942 801.466 111.256C801.466 123.35 801.466 134.796 801.466 144.564C801.466 158.858 801.791 174.451 801.791 190.044C801.791 196.867 805.693 202.064 812.848 202.064C820.464 202.064 828.08 199.899 834.487 196.776C834.751 196.648 835.069 196.754 835.2 197.016C835.257 197.129 835.271 197.259 835.241 197.382L826.41 232.961C825.87 235.135 824.169 236.843 821.964 237.239C813.87 238.695 802.627 239.423 791.384 239.423C768.294 239.423 754.96 227.728 754.96 207.587Z" fill="#E5D3B3"/>
<path d="M838.491 236.825C838.236 236.825 838.029 236.618 838.029 236.363C838.029 236.242 838.078 236.125 838.162 236.039C850.399 223.416 852.013 210.923 852.013 144.889C852.013 104.281 850.713 94.5349 846.81 88.3625C843.92 83.5515 841.348 81.9071 834.397 78.7397C834.234 78.6655 834.127 78.5018 834.127 78.323C834.127 78.1137 834.248 77.9366 834.451 77.8863C842.4 75.9171 870.947 69.3523 888.648 63.5124C893.071 62.0531 897.981 65.6569 897.72 70.3072C896.568 90.8323 896.568 121.533 896.568 140.34V156.259C896.568 216.124 897.858 224.416 909.439 236.038C909.525 236.124 909.576 236.243 909.576 236.365C909.576 236.619 909.37 236.825 909.117 236.825H838.491ZM871.526 53.2774C854.615 53.2774 842.907 43.5315 842.907 27.2884C842.907 10.7205 856.892 0.649716 873.152 0.649716C888.762 0.649716 901.771 11.695 901.771 27.2884C901.771 43.2067 888.112 53.2774 871.526 53.2774Z" fill="#E5D3B3"/>
<path d="M908.478 236.825C908.224 236.825 908.019 236.619 908.019 236.365C908.019 236.243 908.069 236.124 908.155 236.038C921.361 222.79 922.653 213.065 922.653 105.58C922.653 46.4553 922.003 35.0851 916.799 29.5625C913.251 26.0183 911.303 25.6697 903.656 23.4456C903.537 23.4109 903.434 23.3268 903.378 23.2155C903.254 22.9673 903.383 22.6672 903.649 22.5869C921.508 17.1912 939.15 11.0465 959.809 3.29155C963.89 1.75968 968.301 4.92431 968.2 9.28202C967.667 32.1206 967.207 85.3745 967.207 105.58C967.207 213.081 968.177 222.147 982.03 236.038C982.116 236.124 982.167 236.243 982.167 236.365C982.167 236.619 981.961 236.825 981.708 236.825H908.478Z" fill="#E5D3B3"/>
<path d="M992.975 199.141C992.975 185.496 993.626 165.03 993.626 144.889V133.843C993.626 103.306 992.325 93.2355 989.073 87.7128C985.549 82.5929 983.287 81.2554 977.626 78.7326C977.469 78.6627 977.365 78.5059 977.365 78.334C977.365 78.122 977.512 77.9421 977.72 77.9061C990.941 75.6289 1012.61 70.2873 1030.95 64.3167C1035.02 62.9892 1039.31 66.0948 1039.22 70.3813C1038.74 95.1907 1038.51 156.403 1038.51 182.897C1038.51 196.867 1043.38 203.364 1052.81 203.364C1060.65 203.364 1066.81 201.895 1072.31 200.139C1074.68 199.379 1076.27 197.172 1076.34 194.681C1076.69 182.491 1077.21 165.507 1077.21 144.889C1077.21 103.956 1075.9 93.5603 1072 87.7128C1069.12 83.2305 1066.86 81.2725 1060.89 78.729C1060.73 78.6612 1060.62 78.5041 1060.62 78.3311C1060.62 78.121 1060.75 77.9458 1060.96 77.9096C1068.03 76.6745 1096.54 70.1634 1114.05 64.6835C1118.35 63.3365 1122.97 66.7757 1122.75 71.2791C1121.67 92.9207 1121.43 127.902 1121.43 144.239C1121.76 211.927 1122.41 221.175 1136.59 236.038C1136.67 236.124 1136.72 236.242 1136.72 236.361C1136.72 236.617 1136.51 236.825 1136.26 236.825C1131.55 236.825 1127.13 236.825 1122.41 236.825C1112.65 236.825 1103.22 236.825 1093.79 236.825C1087.5 236.825 1082.86 234.677 1079.94 229.909C1077.34 225.664 1071.14 223.077 1067.01 225.852C1055.89 233.317 1041.64 239.099 1029.07 239.099C1006.96 239.099 992.975 225.13 992.975 199.141Z" fill="#E5D3B3"/>
<path d="M1144.81 236.997C1142.17 236.526 1140.19 234.329 1139.95 231.654L1136.14 188.34C1136.13 188.208 1136.24 188.095 1136.37 188.095C1136.42 188.095 1136.47 188.113 1136.51 188.146C1150.14 199.157 1160.2 204.663 1171.25 204.663C1182.63 204.663 1190.76 198.816 1190.76 189.72C1190.76 165.355 1139.7 150.086 1139.7 111.428C1139.7 81.8653 1163.11 62.6984 1200.19 62.6984C1207.1 62.6984 1215.42 63.3017 1221.18 64.1919C1223.64 64.571 1225.43 66.6007 1225.73 69.0671L1230.08 104.678C1230.09 104.812 1229.99 104.931 1229.85 104.931C1229.81 104.931 1229.76 104.916 1229.72 104.889C1216.76 95.8265 1210.91 93.2355 1201.82 93.2355C1191.73 93.2355 1185.23 98.4333 1185.23 106.23C1185.23 128.97 1237.91 136.442 1237.91 186.146C1237.91 220.581 1211.9 240.073 1170.59 240.073C1163.42 240.073 1152.35 238.34 1144.81 236.997Z" fill="#E5D3B3"/>
<path d="M114.679 15.5883C121.676 15.8838 127.103 21.7936 126.807 28.7587C126.51 35.7238 120.573 41.127 113.577 40.8315C113.365 40.8315 43.7373 37.0324 27.9206 104.488C23.6378 122.724 25.4611 139.018 31.2705 152.653C36.1894 164.219 43.9917 173.971 53.4054 181.569C62.9039 189.209 73.9713 194.57 85.4204 197.23C98.7776 200.354 112.474 199.72 124.474 194.655L126.001 194.106C126.128 194.064 165.225 183.637 162.765 132.011C162.299 122.344 158.949 113.775 153.776 106.768C148.857 100.14 142.411 94.9061 135.245 91.4024C128.164 87.9409 120.488 86.2524 113.068 86.5901C106.453 86.8856 100.05 88.9118 94.622 92.9221C88.9823 97.0589 81.0104 95.8347 76.8972 90.2204C72.7416 84.6061 73.9713 76.6701 79.611 72.5755C89.2367 65.526 100.431 61.9379 111.88 61.4313C123.542 60.8826 135.499 63.542 146.355 68.8186C157.126 74.053 166.878 81.9467 174.257 91.8667C182.229 102.631 187.402 115.886 188.123 130.871C191.303 197.905 140.758 216.057 133.676 218.252C116.715 225.217 97.8023 226.103 79.6534 221.882C64.5576 218.378 49.9706 211.329 37.4615 201.282C24.9099 191.193 14.4785 178.107 7.86349 162.573C0.018756 144.211 -2.48308 122.598 3.11425 98.7474C23.8074 10.6494 114.34 15.5883 114.594 15.5883H114.679Z" fill="#E5D3B3"/>
</svg>
